<svg width="40" height="29" viewBox="0 0 40 29" fill="none" xmlns="http://www.w3.org/2000/svg">
<path d="M25.8235 27.0436C16.9758 32.5208 2.47549 23.8838 0.193359 0.184678H11.0774C13.8862 0.605902 18.2164 4.10523 20.0304 5.80224C23.9627 1.02731 28.8078 0.0676458 30.7388 0.184678H39.3407C40.3238 7.34707 34.6009 22.1283 25.8235 27.0436Z" fill="#A72911" stroke="#A72911" stroke-width="0.351098"/>
<mask id="mask0_6579_183" style="mask-type:alpha" maskUnits="userSpaceOnUse" x="0" y="0" width="40" height="29">
<path d="M25.8235 27.0436C16.9758 32.5208 2.47549 23.8838 0.193359 0.184678H11.0774C13.8862 0.605902 18.2164 4.10523 20.0304 5.80224C23.9627 1.02731 28.8078 0.0676458 30.7388 0.184678H39.3407C40.3238 7.34707 34.6009 22.1283 25.8235 27.0436Z" fill="#A72911" stroke="#A72911" stroke-width="0.351098"/>
</mask>
<g mask="url(#mask0_6579_183)">
<path d="M6.68869 19.8459C15.5363 10.296 30.7389 15.1065 33.1966 19.8459C33.7817 23.1815 31.5464 30.1335 17.9238 31.257C12.4233 29.7938 2.47552 25.4631 6.68869 19.8459Z" fill="#E34109" stroke="#E34109" stroke-width="0.351098"/>
</g>
</svg>
