<svg width="37" height="49" viewBox="0 0 37 49" fill="none" xmlns="http://www.w3.org/2000/svg">
<path d="M35.7518 19.6208C32.751 22.3908 29.5001 22.9872 28.2498 22.9391L26.23 36.9333C32.347 35.7791 35.7518 31.1625 35.0305 28.8541L32.8664 29.5755C36.3289 26.8055 37.4831 23.2276 35.7518 19.6208Z" fill="#ED4C84" stroke="#ED4C84" stroke-width="0.288541"/>
<path d="M0.550049 45.7338L2.56983 39.9629L9.35053 32.0281L11.226 34.0479L8.0521 38.6645C6.43628 41.6653 4.30108 44.4353 0.550049 45.7338Z" fill="#ED4C84" stroke="#ED4C84" stroke-width="0.288541"/>
<path d="M13.6788 9.23353C14.9148 3.05356 22.3587 1.249 26.0797 5.01858C26.233 5.1739 26.4944 5.15847 26.6154 4.97686C26.6453 4.93197 26.6513 4.87465 26.631 4.82468C25.3402 1.65211 22.1787 0.38273 20.7481 0.144287H9.49501H6.39356C5.87126 0.144287 5.45692 0.611833 5.47441 1.13383C5.48183 1.35553 5.5582 1.52659 5.70084 1.69647C7.1903 3.47028 8.30475 4.68342 10.2164 5.04948H7.30627C6.76216 5.04948 6.32107 5.50785 6.32107 6.05196C6.32107 6.13616 6.33139 6.20348 6.35524 6.28424C6.94531 8.28277 8.84676 9.07055 9.78355 9.23353C8.05231 12.5808 9.35074 16.976 10.2164 18.7552C4.01274 20.3421 2.90249 31.7395 0.694529 36.3561C-0.575049 39.0107 0.646439 39.7705 1.41588 39.8186C4.07045 40.1649 9.14465 36.2119 9.78355 33.0379C9.89897 34.8846 8.67748 37.4622 8.05231 38.5202C13.3615 37.4814 17.5741 31.5952 16.2757 24.8145C16.5643 22.3619 18.584 23.1226 18.8726 24.3817C20.4596 31.3067 15.9872 38.5202 11.082 41.5499C11.4282 43.3965 12.8613 43.762 13.5346 43.7139C27.3845 42.9926 32.434 28.1327 26.2304 19.0437C18.4398 19.4765 12.9575 16.8796 13.6788 9.23353Z" fill="#ED4C84" stroke="#ED4C84" stroke-width="0.288541"/>
<path d="M19.7379 48.1442H12.5244V46.7648C14.0488 44.7584 19.7379 45.5109 19.7379 47.0156V48.1442Z" fill="#ED4C84" stroke="#ED4C84" stroke-width="0.288541"/>
<path d="M16.4195 48.1441H8.77319V46.5572C10.389 44.2488 16.4195 45.1145 16.4195 46.8457V48.1441Z" fill="#ED4C84" stroke="#ED4C84" stroke-width="0.288541"/>
<path d="M28.3251 6.24271C32.1546 6.01189 34.1197 11.1928 34.6236 13.8121C31.5452 10.9576 28.0684 12.0306 26.7148 12.9239C24.8868 11.6665 27.3863 6.79483 28.3251 6.24271Z" fill="#ED4C84"/>
<path d="M28.8977 17.9573C29.1629 16.5574 27.7653 14.9302 27.0333 14.2916C28.9907 12.5961 30.8901 13.0275 31.5952 13.4552C31.8159 15.8134 29.8888 17.4392 28.8977 17.9573Z" fill="#ED4C84"/>
<path d="M28.3251 6.24271C32.1546 6.01189 34.1197 11.1928 34.6236 13.8121C31.5452 10.9576 28.0684 12.0306 26.7148 12.9239C24.8868 11.6665 27.3863 6.79483 28.3251 6.24271Z" stroke="#ED4C84" stroke-width="0.167547"/>
<path d="M28.8977 17.9573C29.1629 16.5574 27.7653 14.9302 27.0333 14.2916C28.9907 12.5961 30.8901 13.0275 31.5952 13.4552C31.8159 15.8134 29.8888 17.4392 28.8977 17.9573Z" stroke="#ED4C84" stroke-width="0.167547"/>
</svg>
