<svg width="8" height="8" viewBox="0 0 8 8" fill="none" xmlns="http://www.w3.org/2000/svg">
<path d="M1.6665 1.66662C1.66647 1.54932 1.69739 1.43408 1.75613 1.33255C1.81488 1.23102 1.89937 1.14678 2.00109 1.08835C2.1028 1.02992 2.21813 0.999361 2.33543 0.99976C2.45274 1.00016 2.56786 1.0315 2.66917 1.09062L6.66817 3.42329C6.76909 3.48185 6.85288 3.56587 6.91115 3.66695C6.96942 3.76804 7.00015 3.88265 7.00025 3.99933C7.00035 4.11601 6.96983 4.23068 6.91173 4.33186C6.85363 4.43305 6.76999 4.51722 6.66917 4.57595L2.66917 6.90929C2.56786 6.96841 2.45274 6.99975 2.33543 7.00015C2.21813 7.00055 2.1028 6.96999 2.00109 6.91156C1.89937 6.85312 1.81488 6.76889 1.75613 6.66736C1.69739 6.56582 1.66647 6.45059 1.6665 6.33329V1.66662Z" fill="#0E101B" stroke="#0E101B" stroke-width="0.666667" stroke-linecap="round" stroke-linejoin="round"/>
</svg>
