<svg width="194" height="127" viewBox="0 0 194 127" fill="none" xmlns="http://www.w3.org/2000/svg">
<path d="M75.5144 21.3412C75.5144 33.1276 65.9596 42.6823 54.1732 42.6823C42.3868 42.6823 32.832 33.1276 32.832 21.3412C32.832 9.55476 42.3868 0 54.1732 0C65.9596 0 75.5144 9.55476 75.5144 21.3412ZM37.129 21.3412C37.129 30.7544 44.7599 38.3854 54.1732 38.3854C63.5865 38.3854 71.2174 30.7544 71.2174 21.3412C71.2174 11.9279 63.5865 4.29692 54.1732 4.29692C44.7599 4.29692 37.129 11.9279 37.129 21.3412Z" fill="black"/>
<path d="M74.2635 21.7437H93.9171C100.806 21.7437 106.391 27.3285 106.391 34.2177V109.593C106.391 112.545 103.998 114.939 101.045 114.939H1.78198M1.78198 114.939L12.0285 104.692M1.78198 114.939L12.0285 125.185" stroke="black" stroke-width="3.564" stroke-linecap="round" stroke-linejoin="round"/>
</svg>
