<svg width="29" height="29" viewBox="0 0 29 29" fill="none" xmlns="http://www.w3.org/2000/svg">
<path d="M14.4009 26.3999C21.0283 26.3999 26.4009 21.0273 26.4009 14.3999C26.4009 7.77249 21.0283 2.3999 14.4009 2.3999C7.77346 2.3999 2.40088 7.77249 2.40088 14.3999C2.40088 21.0273 7.77346 26.3999 14.4009 26.3999Z" fill="black" stroke="black" stroke-width="2.4" stroke-linecap="round" stroke-linejoin="round"/>
<path d="M10.8008 10.8037C10.8001 10.5908 10.8562 10.3815 10.9632 10.1973C11.0701 10.0132 11.2242 9.86082 11.4095 9.75588C11.5948 9.65095 11.8047 9.59722 12.0177 9.60022C12.2306 9.60321 12.4389 9.66282 12.6212 9.77292L18.6176 13.3693C18.7961 13.4757 18.9439 13.6267 19.0466 13.8073C19.1492 13.988 19.2032 14.1923 19.2032 14.4001C19.2032 14.6079 19.1492 14.8122 19.0466 14.9929C18.9439 15.1736 18.7961 15.3245 18.6176 15.4309L12.6212 19.0273C12.4388 19.1375 12.2304 19.1971 12.0174 19.2C11.8043 19.203 11.5943 19.1491 11.409 19.0441C11.2236 18.939 11.0696 18.7865 10.9627 18.6021C10.8558 18.4178 10.7999 18.2084 10.8008 17.9953V10.8037Z" fill="white"/>
</svg>
