<svg width="93" height="93" viewBox="0 0 93 93" fill="none" xmlns="http://www.w3.org/2000/svg">
<circle cx="46.034" cy="46.034" r="46.034" fill="#E3FBCC"/>
<path d="M47.0063 66.4641C44.5103 66.4641 42.8025 64.4936 43.0652 61.8662L44.2475 51.4881C44.3789 50.9626 43.9848 50.6998 43.4593 51.094L34.9203 57.2683C32.8184 58.8447 30.191 58.3192 28.8773 56.086C27.3009 53.3272 28.6146 51.094 30.8479 50.1744L40.4378 45.8392C40.9633 45.7078 40.9633 45.1823 40.4378 45.051L30.8479 40.7158C28.3519 39.6648 27.5636 37.0375 28.8773 34.8042C30.191 32.5709 32.8184 32.0454 34.9203 33.4905L43.4593 39.7962C43.9848 40.1903 44.3789 39.9276 44.2475 39.4021L43.0652 29.0239C42.8025 26.3966 44.6416 24.426 47.269 24.426C49.765 24.426 51.4728 26.3966 51.2101 29.0239L50.0278 39.4021C49.8964 39.9276 50.2905 40.1903 50.816 39.7962L59.355 33.6219C61.4569 32.0454 64.0843 32.5709 65.3979 34.8042C66.9744 37.5629 65.6607 39.7962 63.4274 40.7158L53.8375 45.051C53.312 45.1823 53.312 45.7078 53.8375 45.8392L63.4274 50.1744C65.9234 51.2253 66.7116 53.8527 65.3979 56.086C64.0843 58.3192 61.4569 58.8447 59.355 57.3997L50.816 51.094C50.2905 50.6998 49.8964 50.9626 50.0278 51.4881L51.2101 61.8662C51.4728 64.4936 49.6337 66.4641 47.0063 66.4641Z" fill="black"/>
</svg>
