<svg xmlns="http://www.w3.org/2000/svg" width="1440" height="224" viewBox="0 0 1440 224" fill="none">
  <path d="M1155.31 48.3591C1173.03 48.52 1192.7 53.813 1209.87 52.2604L1297.17 47.1819C1311.31 41.2537 1332.98 51.6535 1348.23 52.108C1372.81 52.8391 1397.39 53.669 1421.97 54.5978C1430.97 54.9365 1440.54 55.4814 1447.86 60.8167C1461.06 70.4346 1451.2 79.66 1450.97 91.0083C1450.44 118.67 1462.39 139.701 1471 164.936C1338.82 184.022 1206.31 203.08 1072.78 208.728C951.471 213.863 830.971 186.743 712.175 200.784C463.886 230.132 206.886 243.945 -31 165.774C-5.48728 136.941 -3.71938 101.953 -21.0659 69.6808C1.65639 70.9088 18.1134 64.4979 38.9154 59.8824C60.8203 55.0212 84.7175 62.4089 106.8 63.5663C126.948 64.6221 147.553 66.8748 167.607 67.3039C191.28 67.8092 170.996 51.947 189.381 46.0018C196.614 43.6644 205.196 49.8129 205.481 57.5365C207.518 48.0627 209.759 38.154 216.014 30.8426C222.268 23.5311 233.895 20.011 241.477 25.8742C247.454 30.4982 248.883 38.9022 249.862 46.4846C250.798 40.4661 254.284 34.7016 259.624 31.9577C264.966 29.2166 272.118 30.0494 276.125 34.5746C279.646 38.551 279.87 45.2346 276.627 49.2796C280.662 45.5783 285.686 42.862 291.075 42.6849C297.174 42.4845 303.589 46.2136 305.293 52.1814C306.997 58.1519 302.442 65.4944 296.34 65.3702C344.184 66.5502 391.746 67.2785 439.684 66.5106C465.931 66.09 492.178 65.5537 518.42 64.9044C532.092 64.5656 507.5 64.5 506.973 62.615C497.842 55.2245 498.108 38.8344 507.474 31.7544C516.84 24.6744 532.313 29.1601 536.614 40.2035C534.516 28.4996 538.166 15.6269 546.845 7.66615C555.521 -0.294585 569.165 -2.52753 579.393 3.21436C589.621 8.95625 595.044 22.752 590.627 33.7615C597.385 23.7598 604.534 13.3911 615.028 7.6266C625.519 1.86213 640.378 2.38443 647.543 12.0869C655.177 22.4189 650.963 37.0531 646.454 49.1438C650.638 41.6968 662.299 34.36 670.34 39.6559C676.683 43.831 677.6 53.0903 673.513 59.1484C684.761 53.3783 789.015 54.5018 801.196 54.1009C818.044 53.5448 834.892 53.0084 851.74 52.5031C885.443 51.4869 919.15 50.5835 952.862 49.8665C1020.34 48.4409 1087.83 47.7437 1155.31 48.3591Z" fill="#FED8E2"/>
</svg>

