<svg preserveAspectRatio="none" width="100%" height="100%" overflow="visible" style="display: block;" viewBox="0 0 23 23" fill="none" xmlns="http://www.w3.org/2000/svg">
<g id="Group 1261161709">
<circle id="Ellipse 3854" cx="11.5" cy="11.5" r="11.5" fill="var(--fill-0, #FEBDF7)"/>
<g id="Frame">
<path id="Vector" d="M9.66641 8.66667C9.66637 8.54937 9.69729 8.43413 9.75603 8.3326C9.81478 8.23107 9.89928 8.14683 10.001 8.0884C10.1027 8.02997 10.218 7.99941 10.3353 7.99981C10.4526 8.00021 10.5678 8.03155 10.6691 8.09067L14.6681 10.4233C14.769 10.4819 14.8528 10.5659 14.9111 10.667C14.9693 10.7681 15.0001 10.8827 15.0002 10.9994C15.0003 11.1161 14.9697 11.2307 14.9116 11.3319C14.8535 11.4331 14.7699 11.5173 14.6691 11.576L10.6691 13.9093C10.5678 13.9685 10.4526 13.9998 10.3353 14.0002C10.218 14.0006 10.1027 13.97 10.001 13.9116C9.89928 13.8532 9.81478 13.7689 9.75603 13.6674C9.69729 13.5659 9.66637 13.4506 9.66641 13.3333V8.66667Z" fill="var(--fill-0, #0E101B)" stroke="var(--stroke-0, #0E101B)" stroke-width="0.666667" stroke-linecap="round" stroke-linejoin="round"/>
</g>
</g>
</svg>
