<svg preserveAspectRatio="none" width="100%" height="100%" overflow="visible" style="display: block;" viewBox="0 0 110 113" fill="none" xmlns="http://www.w3.org/2000/svg">
<g id="Vector">
<path d="M108.865 28.7525C111.757 45.6871 108.922 60.2996 102.533 61.3904C96.1443 62.4811 88.6214 49.6372 85.73 32.7025C82.8387 15.7679 85.6738 1.15541 92.0625 0.0646396C98.4511 -1.02613 105.974 11.8179 108.865 28.7525Z" fill="var(--fill-0, #DCCBF7)"/>
<path d="M91.9612 37.865C94.8525 54.7997 92.0174 69.4121 85.6287 70.5029C79.2401 71.5937 71.7171 58.7497 68.8258 41.8151C65.9345 24.8804 68.7696 10.268 75.1583 9.17718C81.5469 8.08641 89.0698 20.9304 91.9612 37.865Z" fill="var(--fill-0, #DCCBF7)"/>
<path d="M75.0379 46.9776C77.9292 63.9122 75.0941 78.5247 68.7054 79.6155C62.3168 80.7062 54.7939 67.8622 51.9025 50.9276C49.0112 33.993 51.8463 19.3805 58.235 18.2897C64.6236 17.1989 72.1466 30.0429 75.0379 46.9776Z" fill="var(--fill-0, #DCCBF7)"/>
<path d="M58.1146 57.3919C61.006 74.3265 58.1708 88.939 51.7822 90.0298C45.3935 91.1206 37.8706 78.2766 34.9792 61.3419C32.0879 44.4073 34.923 29.7948 41.3117 28.7041C47.7003 27.6133 55.2233 40.4573 58.1146 57.3919Z" fill="var(--fill-0, #DCCBF7)"/>
<path d="M41.1913 70.4098C44.0827 87.3444 41.2475 101.957 34.8589 103.048C28.4702 104.138 20.9473 91.2945 18.0559 74.3599C15.1646 57.4252 17.9997 42.8127 24.3884 41.722C30.777 40.6312 38.3 53.4752 41.1913 70.4098Z" fill="var(--fill-0, #DCCBF7)"/>
<path d="M24.268 79.5224C27.1594 96.457 24.3242 111.069 17.9356 112.16C11.5469 113.251 4.02399 100.407 1.13264 83.4724C-1.7587 66.5378 1.07643 51.9253 7.46509 50.8345C13.8538 49.7437 21.3767 62.5877 24.268 79.5224Z" fill="var(--fill-0, #DCCBF7)"/>
</g>
</svg>
