<svg width="112" height="112" viewBox="0 0 112 112" fill="none" xmlns="http://www.w3.org/2000/svg">
<circle cx="60" cy="52" r="49" stroke="#E2E8F0" stroke-width="6"/>
<mask id="path-2-inside-1_117_5257" fill="white">
<path d="M60 -2.27299e-06C70.2846 -2.72255e-06 80.3383 3.04974 88.8896 8.76358C97.441 14.4774 104.106 22.5987 108.042 32.1005C111.977 41.6022 113.007 52.0577 111.001 62.1447C108.994 72.2317 104.042 81.4972 96.7696 88.7695C89.4972 96.0419 80.2317 100.994 70.1447 103.001C60.0577 105.007 49.6022 103.977 40.1005 100.042C30.5987 96.106 22.4774 89.441 16.7636 80.8897C11.0497 72.3383 8 62.2846 8 52L60 52L60 -2.27299e-06Z"/>
</mask>
<path d="M60 -2.27299e-06C70.2846 -2.72255e-06 80.3383 3.04974 88.8896 8.76358C97.441 14.4774 104.106 22.5987 108.042 32.1005C111.977 41.6022 113.007 52.0577 111.001 62.1447C108.994 72.2317 104.042 81.4972 96.7696 88.7695C89.4972 96.0419 80.2317 100.994 70.1447 103.001C60.0577 105.007 49.6022 103.977 40.1005 100.042C30.5987 96.106 22.4774 89.441 16.7636 80.8897C11.0497 72.3383 8 62.2846 8 52L60 52L60 -2.27299e-06Z" stroke="url(#paint0_linear_117_5257)" stroke-width="12" mask="url(#path-2-inside-1_117_5257)"/>
<circle cx="60" cy="52" r="46" fill="white"/>
<defs>
<linearGradient id="paint0_linear_117_5257" x1="21" y1="85.8" x2="87.3" y2="6.5" gradientUnits="userSpaceOnUse">
<stop stop-color="#FBAB09"/>
<stop offset="1" stop-color="#FED522"/>
</linearGradient>
</defs>
</svg>
