<svg width="114" height="104" viewBox="0 0 114 104" fill="none" xmlns="http://www.w3.org/2000/svg">
<circle cx="52" cy="52" r="49" stroke="#E2E8F0" stroke-width="6"/>
<mask id="path-2-inside-1_117_5182" fill="white">
<path d="M52 -2.27299e-06C58.8287 -2.57149e-06 65.5906 1.34501 71.8995 3.95826C78.2085 6.57151 83.9409 10.4018 88.7696 15.2304C93.5982 20.0591 97.4285 25.7915 100.042 32.1005C102.655 38.4094 104 45.1713 104 52C104 58.8287 102.655 65.5906 100.042 71.8995C97.4285 78.2085 93.5982 83.9409 88.7695 88.7696C83.9409 93.5982 78.2085 97.4285 71.8995 100.042C65.5906 102.655 58.8287 104 52 104L52 52L52 -2.27299e-06Z"/>
</mask>
<path d="M52 -2.27299e-06C58.8287 -2.57149e-06 65.5906 1.34501 71.8995 3.95826C78.2085 6.57151 83.9409 10.4018 88.7696 15.2304C93.5982 20.0591 97.4285 25.7915 100.042 32.1005C102.655 38.4094 104 45.1713 104 52C104 58.8287 102.655 65.5906 100.042 71.8995C97.4285 78.2085 93.5982 83.9409 88.7695 88.7696C83.9409 93.5982 78.2085 97.4285 71.8995 100.042C65.5906 102.655 58.8287 104 52 104L52 52L52 -2.27299e-06Z" stroke="url(#paint0_linear_117_5182)" stroke-width="12" mask="url(#path-2-inside-1_117_5182)"/>
<circle cx="52" cy="52" r="46" fill="white"/>
<defs>
<linearGradient id="paint0_linear_117_5182" x1="13" y1="85.8" x2="79.3" y2="6.5" gradientUnits="userSpaceOnUse">
<stop stop-color="#FBAB09"/>
<stop offset="1" stop-color="#FED522"/>
</linearGradient>
</defs>
</svg>
