<svg width="112" height="112" viewBox="0 0 112 112" fill="none" xmlns="http://www.w3.org/2000/svg">
<circle cx="56" cy="56" r="49" stroke="#E2E8F0" stroke-width="6"/>
<circle cx="56" cy="56" r="49" transform="rotate(-90 56 56)" stroke="url(#paint0_linear_117_5256)" stroke-width="6" stroke-dasharray="77 308" stroke-linecap="round"/>
<circle cx="56" cy="56" r="46" fill="white"/>
<ellipse cx="56.1826" cy="58.3334" rx="40" ry="37.6667" fill="#8086E2"/>
<ellipse cx="56.1826" cy="52" rx="40" ry="36" fill="#949AF6"/>
<g clip-path="url(#clip0_117_5256)">
<path d="M46.188 65.9999L42.7268 47.2943C41.7676 47.4758 40.9183 47.2554 40.1788 46.6332C39.4394 46.011 39.0703 45.2073 39.0713 44.2221C39.0713 43.3666 39.3762 42.6344 39.986 42.0257C40.5957 41.4169 41.3279 41.112 42.1824 41.111C43.0369 41.11 43.7696 41.4149 44.3804 42.0257C44.9912 42.6365 45.2956 43.3686 45.2935 44.2221C45.2935 44.5851 45.2417 44.9221 45.138 45.2332C45.0343 45.5443 44.8787 45.8295 44.6713 46.0888C45.2417 46.4258 45.8188 46.7048 46.4026 46.9257C46.9865 47.1466 47.602 47.2565 48.2491 47.2554C49.3898 47.2554 50.4465 46.9703 51.4193 46.3999C52.392 45.8295 53.1501 45.0517 53.6935 44.0666L54.6657 42.2777C54.1731 41.9925 53.7843 41.6166 53.4991 41.1499C53.2139 40.6832 53.0713 40.1517 53.0713 39.5554C53.0713 38.6999 53.3762 37.9677 53.986 37.359C54.5957 36.7503 55.3279 36.4454 56.1824 36.4443C57.0369 36.4433 57.7696 36.7482 58.3804 37.359C58.9912 37.9698 59.2956 38.702 59.2935 39.5554C59.2935 40.1517 59.1509 40.6832 58.8657 41.1499C58.5805 41.6166 58.1917 41.9925 57.6991 42.2777L58.6713 44.0666C59.2157 45.0517 59.9743 45.8295 60.9471 46.3999C61.9198 46.9703 62.976 47.2554 64.1157 47.2554C64.7639 47.2554 65.3799 47.1517 65.9637 46.9443C66.5476 46.7369 67.1242 46.4647 67.6935 46.1277C67.4861 45.8684 67.3306 45.577 67.2268 45.2534C67.1231 44.9299 67.0713 44.5861 67.0713 44.2221C67.0713 43.3666 67.3762 42.6344 67.986 42.0257C68.5957 41.4169 69.3279 41.112 70.1824 41.111C71.0369 41.11 71.7696 41.4149 72.3804 42.0257C72.9912 42.6365 73.2956 43.3686 73.2935 44.2221C73.2935 45.2073 72.9243 46.011 72.186 46.6332C71.4476 47.2554 70.5983 47.4758 69.638 47.2943L66.1768 65.9999H46.188Z" fill="white"/>
</g>
<defs>
<linearGradient id="paint0_linear_117_5256" x1="18.2" y1="13" x2="97.5" y2="79.3" gradientUnits="userSpaceOnUse">
<stop stop-color="#FBAB09"/>
<stop offset="1" stop-color="#FED522"/>
</linearGradient>
<clipPath id="clip0_117_5256">
<rect width="37.3333" height="37.3333" fill="white" transform="translate(37.5161 37.3333)"/>
</clipPath>
</defs>
</svg>
