<svg width="32" height="32" viewBox="0 0 31 41" fill="none" xmlns="http://www.w3.org/2000/svg">
<g id="Group 1261161706">
<path id="Vector 63" d="M29.7936 16.3506C27.2929 18.659 24.5839 19.1559 23.5419 19.1158L21.8588 30.7777C26.9563 29.8159 29.7936 25.9687 29.1925 24.045L27.3891 24.6462C30.2745 22.3378 31.2363 19.3563 29.7936 16.3506Z" fill="#ED4C84" stroke="#ED4C84" stroke-width="0.24045"/>
<path id="Vector 62" d="M0.45865 38.1114L2.1418 33.3024L7.79239 26.69L9.35532 28.3732L6.71036 32.2204C5.36384 34.721 3.58451 37.0294 0.45865 38.1114Z" fill="#ED4C84" stroke="#ED4C84" stroke-width="0.24045"/>
<path id="Vector 59" d="M11.399 7.69459C12.429 2.54462 18.6323 1.04082 21.7331 4.18214C21.8609 4.31157 22.0787 4.29871 22.1796 4.14737C22.2045 4.10996 22.2095 4.0622 22.1925 4.02055C21.1169 1.37674 18.4823 0.318928 17.2901 0.120225H7.91256H5.32801C4.89277 0.120225 4.54748 0.509846 4.56205 0.944847C4.56824 1.1296 4.63188 1.27215 4.75075 1.41371C5.99197 2.89188 6.92067 3.90284 8.51369 4.20788H6.08861C5.63518 4.20788 5.26761 4.58986 5.26761 5.04328C5.26761 5.11345 5.27621 5.16955 5.29608 5.23685C5.78781 6.90229 7.37235 7.55877 8.15301 7.69459C6.71031 10.484 7.79234 14.1466 8.51369 15.6293C3.344 16.9518 2.41879 26.4495 0.578823 30.2968C-0.479159 32.5089 0.538748 33.1421 1.17995 33.1822C3.39209 33.4707 7.62059 30.1765 8.15301 27.5316C8.24919 29.0705 7.23128 31.2185 6.71031 32.1001C11.1346 31.2345 14.6452 26.3293 13.5631 20.6787C13.8036 18.6349 15.4867 19.2688 15.7272 20.3181C17.0497 26.0889 13.3227 32.1001 9.23504 34.6249C9.52358 36.1637 10.7178 36.4683 11.2789 36.4282C22.8205 35.8271 27.0284 23.4439 21.8587 15.8697C15.3666 16.2304 10.798 14.0664 11.399 7.69459Z" fill="#ED4C84" stroke="#ED4C84" stroke-width="0.24045"/>
<path id="Vector 56" d="M16.4486 40.1202H10.4373V38.9707C11.7076 37.2987 16.4486 37.9258 16.4486 39.1797V40.1202Z" fill="#ED4C84" stroke="#ED4C84" stroke-width="0.24045"/>
<path id="Vector 55" d="M13.6834 40.1202H7.31147V38.7977C8.65799 36.8741 13.6834 37.5955 13.6834 39.0382V40.1202Z" fill="#ED4C84" stroke="#ED4C84" stroke-width="0.24045"/>
<g id="Vector 67">
<path d="M23.6046 5.20229C26.7959 5.00994 28.4335 9.32738 28.8534 11.5101C26.2881 9.13138 23.3908 10.0255 22.2628 10.77C20.7394 9.72215 22.8224 5.66239 23.6046 5.20229Z" fill="#ED4C84"/>
<path d="M24.0819 14.9645C24.3028 13.7978 23.1381 12.4419 22.5282 11.9097C24.1593 10.4968 25.7422 10.8563 26.3297 11.2127C26.5136 13.1778 24.9078 14.5327 24.0819 14.9645Z" fill="#ED4C84"/>
<path d="M23.6046 5.20229C26.7959 5.00994 28.4335 9.32738 28.8534 11.5101C26.2881 9.13138 23.3908 10.0255 22.2628 10.77C20.7394 9.72215 22.8224 5.66239 23.6046 5.20229Z" stroke="#ED4C84" stroke-width="0.139622"/>
<path d="M24.0819 14.9645C24.3028 13.7978 23.1381 12.4419 22.5282 11.9097C24.1593 10.4968 25.7422 10.8563 26.3297 11.2127C26.5136 13.1778 24.9078 14.5327 24.0819 14.9645Z" stroke="#ED4C84" stroke-width="0.139622"/>
</g>
</g>
</svg>
