<svg width="52" height="59" viewBox="0 0 52 59" fill="none" xmlns="http://www.w3.org/2000/svg">
<path d="M29.8433 58.1249C16.8527 61.987 2.10657 46.1876 0.175537 30.0371C0.175537 24.5236 4.46895 21.8723 7.0021 18.4511C7.25731 18.1064 7.457 17.7255 7.63017 17.3331C10.399 11.0596 16.532 0.0577733 25.1035 0.193828C33.0997 -0.305722 40.4951 9.53289 43.7496 16.7793C44.0878 17.5324 44.5258 18.2333 45.0571 18.8651C47.1898 21.4008 50.3596 25.7969 50.558 28.6327C52.9455 37.4804 42.3072 55.8428 29.8433 58.1249Z" fill="#F9B649" stroke="#FDBE00" stroke-width="0.351098"/>
<path d="M31.6318 51.3675C22.7842 56.8446 8.28384 48.2076 6.00171 24.5085H16.8857C19.6945 24.9298 24.0247 28.4291 25.8387 30.1261C29.771 25.3512 34.6162 24.3915 36.5472 24.5085H45.1491C46.1322 31.6709 40.4093 46.4521 31.6318 51.3675Z" fill="#A72911" stroke="#A72911" stroke-width="0.351098"/>
<mask id="mask0_117_5167" style="mask-type:alpha" maskUnits="userSpaceOnUse" x="5" y="24" width="41" height="30">
<path d="M31.6318 51.3675C22.7842 56.8446 8.28384 48.2076 6.00171 24.5085H16.8857C19.6945 24.9298 24.0247 28.4291 25.8387 30.1261C29.771 25.3512 34.6162 24.3915 36.5472 24.5085H45.1491C46.1322 31.6709 40.4093 46.4521 31.6318 51.3675Z" fill="#A72911" stroke="#A72911" stroke-width="0.351098"/>
</mask>
<g mask="url(#mask0_117_5167)">
<path d="M12.497 44.1697C21.3447 34.6199 36.5472 39.4303 39.0049 44.1697C39.5901 47.5053 37.3547 54.4573 23.7322 55.5808C18.2316 54.1176 8.28387 49.787 12.497 44.1697Z" fill="#E34109" stroke="#E34109" stroke-width="0.351098"/>
</g>
<ellipse cx="18.4647" cy="13.0794" rx="1.75549" ry="3.33543" fill="#FED000"/>
<ellipse cx="32.1576" cy="13.0794" rx="1.75549" ry="3.33543" fill="#FED000"/>
</svg>
