<svg width="173" height="251" viewBox="0 0 173 251" fill="none" xmlns="http://www.w3.org/2000/svg">
<path d="M146.76 148.62C177.306 286.953 -7.5472 280.808 25.6317 148.62C14.818 145.531 9.48108 135.804 13.1677 122.638C6.14573 127.554 -1.05185 126.325 0.352619 120.883C8.42786 109.999 8.60341 105.61 14.0454 81.3843C18.7852 54.3498 35.2868 31.5285 67.0612 25.0332C45.9953 20.9961 58.8104 5.72281 81.2806 20.9961C58.2837 -2.3523 92.5157 -12.1826 96.3778 24.5071C122.499 25.7711 146.936 40.1309 157.293 76.294C159.4 89.9166 162.384 106.488 170.284 118.777C176.253 125.799 166.422 128.608 158.347 122.639C162.033 132.119 159.224 146.514 146.76 148.62Z" fill="#F0568D" stroke="#ED4C84" stroke-width="0.351098"/>
</svg>
