<svg width="71" height="76" viewBox="0 0 71 76" fill="none" xmlns="http://www.w3.org/2000/svg">
<path d="M40.6655 15.7473C45.3045 14.0019 50.414 16.835 52.7431 20.8735C60.0309 33.5091 42.7969 43.0802 34.0505 48.3136C33.0467 48.8393 31.3042 49.8547 29.5361 50.5313C25.9734 51.8946 24.1947 48.0463 25.1362 44.3497C27.5364 34.9264 34.3408 17.9424 40.6655 15.7473Z" fill="#FFB400"/>
<path d="M3.23753 12.659C4.63169 10.7103 7.08571 9.7976 9.47622 9.63447C21.5368 8.81147 21.9859 24.9909 19.4779 36.5613C18.5055 41.0471 14.6889 47.7348 12.0112 44.0069C11.7833 43.6896 11.5592 43.3188 11.3392 42.8923C7.8942 35.9501 -2.20685 20.2689 3.23753 12.659Z" fill="#FFB400"/>
<path d="M55.1951 48.8521C68.2952 45.1953 80.917 70.1734 52.171 65.4131C50.1636 64.9738 40.0358 62.8406 35.9838 60.7074C34.4978 59.9251 34.86 58.2504 36.2431 57.298C40.9565 54.0525 51.3049 50.1132 55.1951 48.8521Z" fill="#FFB400"/>
</svg>
