<svg width="200" height="192" viewBox="0 0 200 192" fill="none" xmlns="http://www.w3.org/2000/svg">
<g clip-path="url(#clip0_117_5141)">
<path d="M190.11 126.732C198.59 111.16 201.203 94.8064 195.358 77.6928C188.989 59.0518 173.019 45.5471 155.829 44.7952C146.719 44.4116 139.028 41.1757 132.404 35.1882C127.427 30.6388 122.62 25.9407 117.737 21.2868C117.699 21.309 117.682 21.3692 117.682 21.3692C116.035 19.931 114.458 18.3503 112.701 17.0768C91.965 2.30739 69.7609 -2.97179 45.9101 9.06997C28.1192 18.0706 17.1994 33.2212 11.6651 52.1256C4.77151 75.577 -13.4476 142.8 22.6581 155.965C51.1992 166.381 99.7432 162.249 123.361 178.913C148.385 196.596 175.731 153.234 190.11 126.732Z" fill="#DDD6FE"/>
</g>
<defs>
<clipPath id="clip0_117_5141">
<rect width="200" height="192" fill="white"/>
</clipPath>
</defs>
</svg>
