<svg width="188" height="186" viewBox="0 0 188 186" fill="none" xmlns="http://www.w3.org/2000/svg">
<g clip-path="url(#clip0_117_5129)">
<path d="M110.528 6.93478C98.6838 8.33247 86.9473 7.84866 75.7491 3.60184C68.9656 1.07525 62.1282 0.268888 55.0217 0.000102123C22.6655 -1.07504 -7.6988 30.7492 1.72274 68.7556C5.16833 82.6787 8.07554 96.3868 7.37566 110.955C5.54519 150.897 36.5017 184.065 76.6105 185.893C100.837 186.968 120.38 177.668 135.67 159.068C143.369 149.66 151.66 140.79 161.189 133.157C175.294 121.868 183.37 107.353 186.816 89.6672C195.429 45.2099 155.482 1.66658 110.528 6.93478Z" fill="#FACC15"/>
</g>
<defs>
<clipPath id="clip0_117_5129">
<rect width="188" height="186" fill="white"/>
</clipPath>
</defs>
</svg>
