<svg width="227" height="87" viewBox="0 0 227 87" fill="none" xmlns="http://www.w3.org/2000/svg">
<path d="M28.4387 68.1093C3.33521 63.8967 -3.68672 32.6499 15.9747 39.3202C25.747 41.661 48.381 48.4132 60.7397 55.2947C61.91 63.9552 63.3729 81.8377 59.8619 84.0847C38.2694 92.8622 12.6393 76.3606 28.4387 68.1093Z" fill="#275DA4"/>
<path d="M10.5328 0.523506C29.141 11.5831 37.9184 20.8872 57.5799 25.8025L63.8997 27.9095L57.5799 63.5459C42.6934 71.2701 13.5172 60.0349 27.5611 45.8155C16.1855 43.2876 0.877644 28.0851 -0.000102997 10.5298C-0.000102997 1.26081 5.79301 -1.23175 10.5328 0.523506Z" fill="#5DC9DE"/>
<path d="M197.668 68.1093C222.771 63.8967 229.793 32.6499 210.132 39.3202C200.36 41.661 177.726 48.4132 165.367 55.2947C164.197 63.9552 162.734 81.8377 166.245 84.0847C187.837 92.8622 213.467 76.3606 197.668 68.1093Z" fill="#275DA4"/>
<path d="M215.574 0.523506C196.966 11.5831 188.188 20.8872 168.527 25.8025L162.207 27.9095L168.527 63.5459C183.413 71.2701 212.59 60.0349 198.546 45.8155C209.921 43.2876 225.229 28.0851 226.107 10.5298C226.107 1.26081 220.314 -1.23175 215.574 0.523506Z" fill="#5DC9DE"/>
</svg>
