<svg width="29" height="29" viewBox="0 0 29 29" fill="none" xmlns="http://www.w3.org/2000/svg">
<path d="M14.4009 26.4C21.0283 26.4 26.4009 21.0274 26.4009 14.4C26.4009 7.77261 21.0283 2.40002 14.4009 2.40002C7.77346 2.40002 2.40088 7.77261 2.40088 14.4C2.40088 21.0274 7.77346 26.4 14.4009 26.4Z" fill="black" stroke="black" stroke-width="2.4" stroke-linecap="round" stroke-linejoin="round"/>
<path d="M10.8008 10.8036C10.8001 10.5906 10.8562 10.3813 10.9632 10.1972C11.0701 10.0131 11.2242 9.8607 11.4095 9.75576C11.5948 9.65083 11.8047 9.5971 12.0177 9.60009C12.2306 9.60309 12.4389 9.6627 12.6212 9.7728L18.6176 13.3692C18.7961 13.4756 18.9439 13.6265 19.0466 13.8072C19.1492 13.9879 19.2032 14.1922 19.2032 14.4C19.2032 14.6078 19.1492 14.8121 19.0466 14.9928C18.9439 15.1735 18.7961 15.3244 18.6176 15.4308L12.6212 19.0272C12.4388 19.1374 12.2304 19.197 12.0174 19.1999C11.8043 19.2028 11.5943 19.149 11.409 19.0439C11.2236 18.9389 11.0696 18.7863 10.9627 18.602C10.8558 18.4177 10.7999 18.2083 10.8008 17.9952V10.8036Z" fill="white"/>
</svg>
