<svg width="44" height="59" viewBox="0 0 44 59" fill="none" xmlns="http://www.w3.org/2000/svg">
<path d="M0.5 56.0204L2.98193 48.9291L11.3141 39.1787L13.6188 41.6606L9.71859 47.3336C7.73305 51.0211 5.1093 54.4249 0.5 56.0204Z" fill="#F4CED8"/>
<path d="M16.6313 11.1689C18.1914 3.3686 27.8 1.24094 32.232 6.38237L32.5867 5.85026C31.0266 1.87918 27.091 0.295468 25.3182 0H11.4903H6.51731C6.51731 0.719656 6.55657 1.11226 6.55657 1.5834C8.5269 3.93905 9.91304 5.55578 12.3767 6.02754H7.59009V7.39401C8.26218 9.96118 10.6704 10.9646 11.8448 11.1689C9.71745 15.2821 11.313 20.6829 12.3767 22.8692C4.7536 24.8193 3.38931 38.8245 0.676142 44.4974C-0.883928 47.7594 0.617049 48.6931 1.56255 48.7522C4.82451 49.1777 11.0597 44.3202 11.8448 40.42C11.9866 42.6892 10.4857 45.8566 9.71746 47.1567C16.2414 45.8802 21.418 38.6472 19.8225 30.315C20.177 27.3012 22.6589 28.236 23.0135 29.7832C24.9636 38.2926 19.4679 47.1567 13.4403 50.8796C13.8658 53.1487 15.6268 53.5979 16.4541 53.5388C33.4731 52.6524 39.6779 34.3924 32.0548 23.2238C22.4817 23.7556 15.745 20.5646 16.6313 11.1689Z" fill="#F4CED8"/>
<path d="M24.0769 58.983H15.2129V57.288C17.086 54.8225 24.0769 55.7471 24.0769 57.5962V58.983Z" fill="#F4CED8"/>
<path d="M19.9994 58.9828H10.6035V57.0327C12.5891 54.1962 19.9994 55.2599 19.9994 57.3872V58.9828Z" fill="#F4CED8"/>
<path d="M34.6295 7.49343C39.3353 7.2098 41.7501 13.5762 42.3692 16.7948C38.5865 13.2871 34.3142 14.6056 32.6509 15.7033C30.4046 14.1583 33.476 8.17188 34.6295 7.49343Z" fill="#F4CED8"/>
<path d="M35.3332 21.8884C35.659 20.1682 33.9416 18.1687 33.0422 17.384C35.4474 15.3006 37.7815 15.8307 38.6479 16.3561C38.9191 19.2539 36.5511 21.2518 35.3332 21.8884Z" fill="#F4CED8"/>
</svg>
