<svg width="137" height="79" viewBox="0 0 137 79" fill="none" xmlns="http://www.w3.org/2000/svg">
<path d="M136.557 71.4368C110.212 77.9028 85.958 73.8038 59.42 75.1348C39.611 76.1288 19.806 77.2138 0 78.2538C9.44 75.4528 18.88 72.6508 28.32 69.8488C21.125 67.7088 17.678 57.7488 22.01 51.6198C26.342 45.4898 36.882 45.4158 41.3 51.4838C39.463 40.0428 37.676 28.0098 41.642 17.1218C45.608 6.2348 57.463 -2.7112 68.518 0.758798C75.908 3.0788 80.934 10.2678 82.827 17.7788C84.72 25.2898 84.012 33.1798 83.292 40.8908C82.661 32.4828 89.611 24.2298 98.004 23.4208C106.397 22.6128 114.795 29.3868 115.78 37.7608C116.765 46.1348 110.169 54.6738 101.817 55.8348C105.845 53.8738 110.424 52.5958 114.806 53.5318C119.187 54.4668 123.198 58.1018 123.434 62.5758C123.67 67.0498 118.987 71.4088 114.747 69.9608C122.018 70.4528 129.288 70.9448 136.557 71.4368Z" fill="#FED8E2"/>
</svg>
