<svg width="101" height="45" viewBox="0 0 101 45" fill="none" xmlns="http://www.w3.org/2000/svg">
<path d="M88.339 44.0673C58.884 42.7443 29.478 41.6433 0 41.0303C6.073 40.1703 12.145 39.3093 18.218 38.4493C3.90399 41.5603 15.291 22.6543 19.019 27.8763C14.553 21.6193 15.281 12.3383 20.308 6.52233C25.335 0.705327 34.036 -1.41566 41.351 0.951335C48.666 3.31834 54.351 9.82634 56.24 17.2783C55.291 12.3743 56.754 6.53633 61.165 4.19133C65.575 1.84633 72.374 5.62034 71.319 10.5023C72.137 3.86134 80.406 -0.195672 86.643 2.22733C92.88 4.65133 96.332 11.9813 95.504 18.6213C94.675 25.2613 90.264 31.0533 84.807 34.9243C87.638 33.4763 90.627 31.9913 93.805 32.0993C96.983 32.2073 100.327 34.5293 100.378 37.7083C100.419 40.2673 98.322 42.4663 95.929 43.3753C93.537 44.2843 90.896 44.1823 88.339 44.0673Z" fill="#FED8E2"/>
</svg>
