<svg width="39" height="49" viewBox="0 0 39 49" fill="none" xmlns="http://www.w3.org/2000/svg">
<path d="M19.0799 48.2094C29.6174 48.2094 38.1597 39.667 38.1597 29.1295C38.1597 18.592 29.6174 10.0496 19.0799 10.0496C8.54238 10.0496 0 18.592 0 29.1295C0 39.667 8.54238 48.2094 19.0799 48.2094Z" fill="#F5B1F1"/>
<path d="M19.3115 45.5417C29.4625 45.5417 37.6915 37.3126 37.6915 27.1616C37.6915 17.0105 29.4625 8.78149 19.3115 8.78149C9.16046 8.78149 0.931396 17.0105 0.931396 27.1616C0.931396 37.3126 9.16046 45.5417 19.3115 45.5417Z" fill="#FEE9F9"/>
<path d="M18.6202 45.3993C28.3892 45.3993 36.3097 37.4803 36.3097 27.7097C36.3097 17.9406 28.3908 10.0201 18.6202 10.0201C8.94398 10.0201 1.09469 17.7935 0.946067 27.4341C0.944519 27.3412 0.932129 27.2514 0.932129 27.1585C0.932129 17.0086 9.16075 8.77844 19.3107 8.77844C29.4606 8.77844 37.6892 17.0071 37.6892 27.1585C37.6892 37.3084 29.4606 45.5371 19.3107 45.5371C17.8956 45.5371 16.5239 45.3621 15.2002 45.0587C16.3087 45.2801 17.4497 45.3993 18.6202 45.3993Z" fill="white"/>
<path d="M18.8472 34.1407C25.4003 34.1407 30.7125 28.8284 30.7125 22.2753C30.7125 15.7223 25.4003 10.41 18.8472 10.41C12.2942 10.41 6.98193 15.7223 6.98193 22.2753C6.98193 28.8284 12.2942 34.1407 18.8472 34.1407Z" fill="#F094F6"/>
<path d="M18.7052 26.188C27.3832 26.188 34.4181 20.4931 34.4181 13.4681C34.4181 6.44307 27.3832 0.748169 18.7052 0.748169C10.0273 0.748169 2.99243 6.44307 2.99243 13.4681C2.99243 20.4931 10.0273 26.188 18.7052 26.188Z" fill="#FEE9F9"/>
<path d="M19.0792 25.4399C27.5505 25.4399 34.4179 19.745 34.4179 12.72C34.4179 5.69496 27.5505 6.10352e-05 19.0792 6.10352e-05C10.6078 6.10352e-05 3.74048 5.69496 3.74048 12.72C3.74048 19.745 10.6078 25.4399 19.0792 25.4399Z" fill="#F2CBE7"/>
<path d="M33.1619 13.3297C33.1619 6.54993 26.3828 1.05444 18.0195 1.05444C12.0929 1.05444 6.97642 3.82124 4.4895 7.84059C6.80561 3.24196 12.3702 6.10352e-05 18.8766 6.10352e-05C27.461 6.10352e-05 34.4187 5.64037 34.4187 12.5993C34.4187 17.6006 30.8145 21.9083 25.6056 23.9434C30.1187 21.8169 33.1619 17.8661 33.1619 13.3297Z" fill="white"/>
</svg>
