<svg width="38" height="38" viewBox="0 0 38 38" fill="none" xmlns="http://www.w3.org/2000/svg">
<g clip-path="url(#clip0_117_5346)">
<path d="M28.8394 7.58561C28.8394 7.27619 28.7165 6.97945 28.4977 6.76065C28.2789 6.54186 27.9821 6.41895 27.6727 6.41895C27.3633 6.41895 27.0666 6.54186 26.8478 6.76065C26.629 6.97945 26.5061 7.27619 26.5061 7.58561V9.88783C26.5061 10.1973 26.629 10.494 26.8478 10.7128C27.0666 10.9316 27.3633 11.0545 27.6727 11.0545C27.9821 11.0545 28.2789 10.9316 28.4977 10.7128C28.7165 10.494 28.8394 10.1973 28.8394 9.88783V7.58561ZM36.7898 20.0145C36.4657 18.754 35.8771 17.5768 35.0632 16.5612C34.2563 15.5384 33.2442 14.6959 32.0921 14.0878C30.9428 13.4846 29.6836 13.1195 28.3898 13.0145C27.0924 12.917 25.789 13.0919 24.5632 13.5278C23.3305 13.9577 22.2018 14.6413 21.2498 15.5345C20.3081 16.4126 19.5518 17.4705 19.0254 18.6456C18.511 19.8388 18.2513 21.1263 18.2632 22.4256C18.2271 23.9263 18.5482 25.4142 19.2 26.7664C19.8518 28.1187 20.8156 29.2967 22.0121 30.2034L22.5565 30.7167C23.0232 31.1989 23.0232 31.1989 23.0076 32.2723V32.7701C22.9889 33.1142 23.0419 33.4585 23.1632 33.7812C23.2721 34.1265 23.4649 34.4423 23.7232 34.6989C23.8414 34.8203 23.971 34.9292 24.1121 35.0256V36.5812C24.0864 36.8633 24.1169 37.1477 24.2017 37.4179C24.2866 37.6882 24.424 37.939 24.6062 38.1559C24.7884 38.3728 25.0117 38.5515 25.2633 38.6817C25.5149 38.8119 25.7898 38.891 26.0721 38.9145H29.1832C29.7545 38.867 30.2836 38.5944 30.6541 38.1569C31.0245 37.7193 31.2061 37.1525 31.1587 36.5812V35.0256C31.2991 34.9303 31.4295 34.8208 31.5476 34.6989C31.7918 34.4407 31.9785 34.1327 32.0921 33.7967C32.2112 33.4681 32.2641 33.1192 32.2476 32.7701V32.1945C32.2476 31.3389 32.2476 31.3389 32.7298 30.7945L33.3209 30.2501C35.3153 28.699 36.6176 26.4241 36.9454 23.9189C37.1744 22.6214 37.1214 21.2897 36.7898 20.0145ZM28.9032 36.5501H26.4454V35.5701H28.9032V36.5501ZM27.6743 20.1234C27.1668 20.1234 26.6802 20.325 26.3213 20.6838C25.9625 21.0426 25.7609 21.5293 25.7609 22.0367C25.7609 22.4493 25.5971 22.8449 25.3053 23.1367C25.0136 23.4284 24.6179 23.5923 24.2054 23.5923C23.7928 23.5923 23.3972 23.4284 23.1054 23.1367C22.8137 22.8449 22.6498 22.4493 22.6498 22.0367C22.6457 21.3757 22.7728 20.7205 23.0239 20.1091C23.2749 19.4976 23.6449 18.9421 24.1122 18.4747C24.5796 18.0073 25.1352 17.6374 25.7466 17.3863C26.3581 17.1353 27.0133 17.0081 27.6743 17.0123C28.0868 17.0123 28.4825 17.1762 28.7742 17.4679C29.0659 17.7596 29.2298 18.1553 29.2298 18.5678C29.2298 18.9804 29.0659 19.3761 28.7742 19.6678C28.4825 19.9595 28.0868 20.1234 27.6743 20.1234ZM41.9232 24.0123H39.0765C38.7671 24.0123 38.4703 23.8894 38.2515 23.6706C38.0327 23.4518 37.9098 23.155 37.9098 22.8456C37.9098 22.5362 38.0327 22.2394 38.2515 22.0207C38.4703 21.8019 38.7671 21.6789 39.0765 21.6789H41.9232C42.2326 21.6789 42.5293 21.8019 42.7481 22.0207C42.9669 22.2394 43.0898 22.5362 43.0898 22.8456C43.0898 23.155 42.9669 23.4518 42.7481 23.6706C42.5293 23.8894 42.2326 24.0123 41.9232 24.0123ZM36.1987 14.6634C36.0454 14.6641 35.8935 14.6342 35.752 14.5754C35.6104 14.5167 35.482 14.4302 35.3743 14.3212C35.1558 14.1024 35.0331 13.8059 35.0331 13.4967C35.0331 13.1876 35.1558 12.891 35.3743 12.6723L37.3965 10.6501C37.6177 10.444 37.9102 10.3318 38.2124 10.3371C38.5147 10.3425 38.803 10.4649 39.0168 10.6786C39.2305 10.8924 39.353 11.1808 39.3583 11.483C39.3637 11.7853 39.2515 12.0778 39.0454 12.2989L37.0232 14.3212C36.916 14.4309 36.7877 14.5179 36.646 14.5767C36.5043 14.6355 36.3521 14.665 36.1987 14.6634ZM39.7765 34.0145C39.4688 34.0063 39.1751 33.8844 38.952 33.6723L36.9298 31.6501C36.7932 31.5146 36.6921 31.3474 36.6357 31.1634C36.5793 30.9794 36.5693 30.7843 36.6066 30.5955C36.6438 30.4067 36.7272 30.2301 36.8493 30.0813C36.9714 29.9326 37.1284 29.8163 37.3063 29.7429C37.5197 29.653 37.7554 29.6295 37.9824 29.6755C38.2094 29.7216 38.4172 29.8351 38.5787 30.0012L40.6009 32.0234C40.711 32.1306 40.7985 32.2588 40.8582 32.4004C40.9179 32.542 40.9487 32.6942 40.9487 32.8478C40.9487 33.0015 40.9179 33.1536 40.8582 33.2952C40.7985 33.4368 40.711 33.565 40.6009 33.6723C40.3824 33.8911 40.0858 34.0142 39.7765 34.0145ZM19.1654 14.6634C18.8561 14.6631 18.5595 14.54 18.3409 14.3212L16.3187 12.2989C16.1001 12.0782 15.978 11.7797 15.9795 11.469C15.981 11.1583 16.1058 10.8609 16.3265 10.6423C16.5472 10.4236 16.8458 10.3016 17.1564 10.3031C17.4671 10.3045 17.7645 10.4293 17.9832 10.6501L19.9898 12.6723C20.1528 12.8354 20.2637 13.0432 20.3087 13.2694C20.3536 13.4956 20.3305 13.73 20.2423 13.943C20.1541 14.1561 20.0047 14.3382 19.813 14.4664C19.6213 14.5947 19.396 14.6632 19.1654 14.6634ZM15.6032 34.0145C15.4494 34.0189 15.2964 33.9907 15.1543 33.9318C15.0122 33.8728 14.8842 33.7843 14.7787 33.6723C14.5602 33.4535 14.4375 33.157 14.4375 32.8478C14.4375 32.5387 14.5602 32.2421 14.7787 32.0234L16.8009 30.0012C17.0221 29.7951 17.3146 29.6829 17.6169 29.6882C17.9191 29.6936 18.2075 29.816 18.4212 30.0298C18.635 30.2435 18.7574 30.5319 18.7628 30.8341C18.7681 31.1364 18.6559 31.4289 18.4498 31.6501L16.4432 33.6878C16.2138 33.8979 15.9141 34.0144 15.6032 34.0145ZM16.2565 24.0123H13.4098C13.1004 24.0123 12.8037 23.8894 12.5849 23.6706C12.3661 23.4518 12.2432 23.155 12.2432 22.8456C12.2432 22.5362 12.3661 22.2394 12.5849 22.0207C12.8037 21.8019 13.1004 21.6789 13.4098 21.6789H16.2565C16.5659 21.6789 16.8627 21.8019 17.0815 22.0207C17.3002 22.2394 17.4232 22.5362 17.4232 22.8456C17.4232 23.155 17.3002 23.4518 17.0815 23.6706C16.8627 23.8894 16.5659 24.0123 16.2565 24.0123Z" fill="white"/>
</g>
<defs>
<clipPath id="clip0_117_5346">
<rect width="37.3333" height="37.3333" fill="white"/>
</clipPath>
</defs>
</svg>
