<svg width="38" height="38" viewBox="0 0 38 38" fill="none" xmlns="http://www.w3.org/2000/svg">
<g clip-path="url(#clip0_117_5263)">
<path d="M8.67184 24.6666L5.21073 5.96109C4.25147 6.14257 3.40214 5.9222 2.66273 5.29998C1.92333 4.67775 1.55414 3.87405 1.55518 2.88886C1.55518 2.03331 1.86007 1.30116 2.46984 0.69242C3.07962 0.0836787 3.81177 -0.22121 4.66629 -0.222247C5.52081 -0.223284 6.25347 0.0816045 6.86429 0.69242C7.4751 1.30323 7.77947 2.03538 7.7774 2.88886C7.7774 3.25183 7.72555 3.58886 7.62184 3.89998C7.51814 4.21109 7.36259 4.49627 7.15518 4.75553C7.72555 5.09257 8.30266 5.37153 8.88651 5.59242C9.47036 5.81331 10.0858 5.92323 10.733 5.9222C11.8737 5.9222 12.9304 5.63701 13.9032 5.06664C14.8759 4.49627 15.634 3.71849 16.1774 2.73331L17.1496 0.944419C16.657 0.659235 16.2681 0.283309 15.983 -0.183358C15.6978 -0.650025 15.5552 -1.18151 15.5552 -1.7778C15.5552 -2.63336 15.8601 -3.36551 16.4698 -3.97425C17.0796 -4.58299 17.8118 -4.88788 18.6663 -4.88891C19.5208 -4.88995 20.2535 -4.58506 20.8643 -3.97425C21.4751 -3.36343 21.7795 -2.63128 21.7774 -1.7778C21.7774 -1.18151 21.6348 -0.650025 21.3496 -0.183358C21.0644 0.283309 20.6755 0.659235 20.183 0.944419L21.1552 2.73331C21.6996 3.71849 22.4582 4.49627 23.431 5.06664C24.4037 5.63701 25.4599 5.9222 26.5996 5.9222C27.2478 5.9222 27.8638 5.81849 28.4476 5.61109C29.0315 5.40368 29.6081 5.13146 30.1774 4.79442C29.97 4.53516 29.8144 4.24375 29.7107 3.9202C29.607 3.59664 29.5552 3.25286 29.5552 2.88886C29.5552 2.03331 29.8601 1.30116 30.4698 0.69242C31.0796 0.0836787 31.8118 -0.22121 32.6663 -0.222247C33.5208 -0.223284 34.2535 0.0816045 34.8643 0.69242C35.4751 1.30323 35.7795 2.03538 35.7774 2.88886C35.7774 3.87405 35.4082 4.67775 34.6698 5.29998C33.9315 5.9222 33.0821 6.14257 32.1218 5.96109L28.6607 24.6666H8.67184Z" fill="white"/>
</g>
<defs>
<clipPath id="clip0_117_5263">
<rect width="37.3333" height="37.3333" fill="white"/>
</clipPath>
</defs>
</svg>
