<svg width="38" height="38" viewBox="0 0 38 38" fill="none" xmlns="http://www.w3.org/2000/svg">
<path fill-rule="evenodd" clip-rule="evenodd" d="M27.9422 2.77176L28.3389 2.82154C29.3873 2.9662 30.7749 3.16065 31.5604 3.94776C32.2044 4.5902 32.4518 5.63554 32.5995 6.56887L32.6866 7.16931C32.8826 8.58487 32.934 10.4391 32.5995 12.4986C31.94 16.5633 29.7762 21.4135 24.3426 25.1686C24.3131 25.4611 24.3115 25.7566 24.3178 26.0522L24.3333 26.494C24.3582 27.1738 24.3831 27.8535 24.1933 28.5131C23.8978 29.5398 22.8447 30.2164 21.86 30.7018L21.3778 30.9304L20.7555 31.2042C19.592 31.6989 18.0209 32.206 17.0362 31.2198C16.4451 30.6302 16.2024 29.7653 16.0049 28.9051L15.9318 28.5831C15.8482 28.1768 15.7444 27.775 15.6207 27.3791C15.5429 27.1509 15.4589 26.9202 15.3687 26.6869C15.2694 26.8088 15.164 26.9256 15.0529 27.0369C14.5162 27.5735 13.7151 27.9484 13.0555 28.2113C12.3353 28.496 11.5202 28.7449 10.7658 28.9502L10.3784 29.0529L9.63643 29.238L8.96443 29.3935L8.16021 29.5646L7.65776 29.6626C7.40718 29.709 7.14907 29.6938 6.90569 29.6182C6.66232 29.5426 6.44099 29.4089 6.26078 29.2287C6.08058 29.0485 5.94692 28.8272 5.87133 28.5838C5.79573 28.3405 5.78048 28.0823 5.82687 27.8318L5.96065 27.1613L6.20021 26.0755L6.3931 25.2822L6.53932 24.7222C6.74465 23.9693 6.99354 23.1542 7.27976 22.4355C7.5411 21.7744 7.91598 20.9733 8.45265 20.4366L8.5771 20.3169L8.47754 20.2764C8.21165 20.1754 7.94239 20.0836 7.67021 20.0011L7.23932 19.8689C6.15976 19.5422 5.00554 19.1906 4.28843 18.472C3.41732 17.6024 3.71132 16.2786 4.13132 15.1773L4.30243 14.7511L4.57776 14.1289L4.80643 13.6466C5.29176 12.6635 5.96843 11.6104 6.9951 11.3149C7.53954 11.1593 8.10576 11.15 8.6751 11.1655L9.01732 11.1764C9.46221 11.192 9.90554 11.2091 10.3395 11.1671C14.0947 5.73198 18.9449 3.5682 23.0095 2.90865C24.6401 2.64121 26.2993 2.59516 27.9422 2.77176ZM12.6791 22.4884C12.4344 22.307 12.1417 22.2015 11.8376 22.1849C11.5334 22.1683 11.231 22.2414 10.968 22.3951L10.7969 22.5102L10.6522 22.6393L10.4578 22.8851C10.0533 23.47 9.8231 24.2789 9.64421 25.0349L9.47621 25.7629L9.39687 26.0942L9.69398 26.0226L10.3442 25.8733C11.2433 25.6633 12.2404 25.3911 12.8533 24.8389C13.1198 24.5725 13.2806 24.2185 13.3057 23.8426C13.3309 23.4667 13.2188 23.0944 12.9902 22.7949L12.8627 22.6486L12.8253 22.6129L12.6791 22.4884ZM23.8526 11.64C23.5638 11.351 23.2209 11.1218 22.8434 10.9654C22.466 10.809 22.0614 10.7284 21.6529 10.7283C21.2443 10.7283 20.8397 10.8087 20.4622 10.965C20.0847 11.1212 19.7417 11.3504 19.4528 11.6392C19.1638 11.9281 18.9346 12.271 18.7782 12.6484C18.6217 13.0259 18.5412 13.4304 18.5411 13.839C18.5411 14.2476 18.6215 14.6521 18.7777 15.0296C18.934 15.4071 19.1631 15.7501 19.452 16.0391C20.0353 16.6227 20.8266 16.9506 21.6518 16.9507C22.4769 16.9509 23.2683 16.6232 23.8519 16.0399C24.4354 15.4565 24.7634 14.6652 24.7635 13.8401C24.7637 13.0149 24.436 12.2235 23.8526 11.64Z" fill="white"/>
</svg>
