<svg width="8" height="8" viewBox="0 0 8 8" fill="none" xmlns="http://www.w3.org/2000/svg">
<path d="M2.3537 0.811352C2.96745 -0.270416 4.5262 -0.270416 5.13995 0.811352C5.36811 1.21349 5.7589 1.49742 6.21186 1.59014C7.43034 1.83957 7.91202 3.32202 7.07286 4.24002C6.76091 4.58128 6.61164 5.04068 6.66343 5.50012C6.80274 6.73605 5.54168 7.65226 4.4093 7.13784C3.98835 6.94662 3.5053 6.94662 3.08435 7.13784C1.95197 7.65226 0.690913 6.73605 0.830225 5.50012C0.882013 5.04068 0.732743 4.58128 0.420793 4.24002C-0.41837 3.32202 0.0633099 1.83957 1.28179 1.59014C1.73475 1.49742 2.12554 1.21349 2.3537 0.811352Z" fill="#0E101B"/>
</svg>
