<svg width="8" height="8" viewBox="0 0 8 8" fill="none" xmlns="http://www.w3.org/2000/svg">
<path d="M2.3441 0.808574C2.93598 -0.269562 4.48492 -0.269562 5.0768 0.808574C5.30066 1.21636 5.69497 1.50284 6.15198 1.58974C7.36025 1.81949 7.83889 3.29261 6.99643 4.18868C6.67778 4.52761 6.52716 4.99115 6.58574 5.45264C6.74062 6.67277 5.4875 7.58321 4.37495 7.05887C3.95414 6.86055 3.46675 6.86055 3.04595 7.05887C1.9334 7.58321 0.680282 6.67277 0.835155 5.45264C0.893734 4.99115 0.743122 4.52761 0.424472 4.18868C-0.417996 3.29261 0.0606514 1.81949 1.26892 1.58974C1.72593 1.50284 2.12024 1.21636 2.3441 0.808574Z" fill="#0E101B"/>
</svg>
