<svg width="24" height="24" viewBox="0 0 24 24" fill="none" xmlns="http://www.w3.org/2000/svg">
<g clip-path="url(#clip0_117_5400)">
<path d="M5.3335 12.6668V7.33343H3.3335C2.80306 7.33343 2.29436 7.54414 1.91928 7.91921C1.54421 8.29429 1.3335 8.80299 1.3335 9.33343L1.3335 21.3334C1.33449 21.4572 1.36994 21.5783 1.43588 21.6831C1.50182 21.7879 1.59564 21.8723 1.70683 21.9268C1.81395 21.9755 1.93205 21.995 2.04915 21.9833C2.16624 21.9715 2.27814 21.9291 2.3735 21.8601L5.80683 19.3334H14.7668C15.0195 19.3409 15.271 19.2964 15.5058 19.2027C15.7406 19.109 15.9536 18.9682 16.1317 18.7888C16.3099 18.6094 16.4493 18.3954 16.5413 18.16C16.6333 17.9245 16.6761 17.6727 16.6668 17.4201V16.6668H9.3335C8.27263 16.6668 7.25521 16.2453 6.50507 15.4952C5.75492 14.745 5.3335 13.7276 5.3335 12.6668Z" fill="black"/>
<path d="M20.6668 2.66665L9.3335 2.66665C8.80306 2.66665 8.29435 2.87736 7.91928 3.25243C7.54421 3.6275 7.3335 4.13621 7.3335 4.66665L7.3335 12.6666C7.3335 13.1971 7.54421 13.7058 7.91928 14.0809C8.29435 14.4559 8.80306 14.6666 9.3335 14.6666H18.3668L21.5535 17.14C21.6482 17.21 21.7598 17.2537 21.8769 17.2666C21.994 17.2795 22.1125 17.2611 22.2202 17.2133C22.3336 17.1593 22.4295 17.0743 22.4967 16.9681C22.5639 16.862 22.5998 16.739 22.6002 16.6133V4.66665C22.6005 4.14756 22.3989 3.6487 22.0381 3.27549C21.6774 2.90228 21.1856 2.68395 20.6668 2.66665Z" fill="black"/>
</g>
<defs>
<clipPath id="clip0_117_5400">
<rect width="24" height="24" fill="white"/>
</clipPath>
</defs>
</svg>
