<svg width="124" height="89" viewBox="0 0 124 89" fill="none" xmlns="http://www.w3.org/2000/svg">
<path d="M76 26.5C76 33.9558 69.9558 40 62.5 40C55.0442 40 49 33.9558 49 26.5C49 19.0442 55.0442 13 62.5 13C69.9558 13 76 19.0442 76 26.5ZM53.335 26.5C53.335 31.5617 57.4383 35.665 62.5 35.665C67.5617 35.665 71.665 31.5617 71.665 26.5C71.665 21.4383 67.5617 17.335 62.5 17.335C57.4383 17.335 53.335 21.4383 53.335 26.5Z" fill="#CFFFF8"/>
<path d="M87 27C87 40.8071 75.8071 52 62 52C48.1929 52 37 40.8071 37 27C37 13.1929 48.1929 2 62 2C75.8071 2 87 13.1929 87 27ZM41.5271 27C41.5271 38.3068 50.6932 47.4729 62 47.4729C73.3068 47.4729 82.4729 38.3068 82.4729 27C82.4729 15.6932 73.3068 6.52714 62 6.52714C50.6932 6.52714 41.5271 15.6932 41.5271 27Z" fill="#CFFFF8"/>
<path d="M99 26.5C99 46.6584 82.6584 63 62.5 63C42.3416 63 26 46.6584 26 26.5C26 6.34161 42.3416 -10 62.5 -10C82.6584 -10 99 6.34161 99 26.5ZM31.1667 26.5C31.1667 43.8049 45.1951 57.8333 62.5 57.8333C79.8049 57.8333 93.8333 43.8049 93.8333 26.5C93.8333 9.1951 79.8049 -4.83329 62.5 -4.83329C45.1951 -4.83329 31.1667 9.1951 31.1667 26.5Z" fill="#CFFFF8"/>
<path d="M112 27C112 54.6142 89.6142 77 62 77C34.3858 77 12 54.6142 12 27C12 -0.614237 34.3858 -23 62 -23C89.6142 -23 112 -0.614237 112 27ZM18.1787 27C18.1787 51.2018 37.7982 70.8213 62 70.8213C86.2018 70.8213 105.821 51.2018 105.821 27C105.821 2.79818 86.2018 -16.8213 62 -16.8213C37.7982 -16.8213 18.1787 2.79818 18.1787 27Z" fill="#CFFFF8"/>
<path d="M124 27C124 61.2417 96.2417 89 62 89C27.7583 89 0 61.2417 0 27C0 -7.24166 27.7583 -35 62 -35C96.2417 -35 124 -7.24166 124 27ZM5.50182 27C5.50182 58.2031 30.7969 83.4982 62 83.4982C93.2031 83.4982 118.498 58.2031 118.498 27C118.498 -4.20308 93.2031 -29.4982 62 -29.4982C30.7969 -29.4982 5.50182 -4.20308 5.50182 27Z" fill="#CFFFF8"/>
</svg>
