<svg width="24" height="24" viewBox="0 0 24 24" fill="none" xmlns="http://www.w3.org/2000/svg">
<path fill-rule="evenodd" clip-rule="evenodd" d="M4.00024 3C3.46981 3 2.9611 3.21071 2.58603 3.58579C2.21096 3.96086 2.00024 4.46957 2.00024 5V19C2.00024 19.5304 2.21096 20.0391 2.58603 20.4142C2.9611 20.7893 3.46981 21 4.00024 21H20.0002C20.5307 21 21.0394 20.7893 21.4145 20.4142C21.7895 20.0391 22.0002 19.5304 22.0002 19V5C22.0002 4.46957 21.7895 3.96086 21.4145 3.58579C21.0394 3.21071 20.5307 3 20.0002 3H4.00024ZM8.62524 8.63C8.64744 8.43882 8.714 8.25547 8.81964 8.09458C8.92527 7.93369 9.06704 7.79972 9.23365 7.70335C9.40025 7.60698 9.58707 7.55089 9.7792 7.53954C9.97133 7.5282 10.1635 7.56191 10.3402 7.638C10.8442 7.854 11.9082 8.34 13.2562 9.118C14.2036 9.65944 15.1185 10.2558 15.9962 10.904C16.1506 11.0188 16.2759 11.1682 16.3623 11.34C16.4486 11.5119 16.4936 11.7016 16.4936 11.894C16.4936 12.0864 16.4486 12.2761 16.3623 12.448C16.2759 12.6198 16.1506 12.7692 15.9962 12.884C15.1184 13.5315 14.2035 14.1272 13.2562 14.668C12.314 15.2184 11.3403 15.7132 10.3402 16.15C10.1635 16.2263 9.9713 16.2602 9.77909 16.2489C9.58688 16.2377 9.39997 16.1816 9.23331 16.0852C9.06664 15.9888 8.92485 15.8548 8.81926 15.6938C8.71368 15.5328 8.64724 15.3493 8.62524 15.158C8.50526 14.0742 8.4465 12.9844 8.44924 11.894C8.44924 10.343 8.56124 9.175 8.62524 8.63Z" fill="black"/>
</svg>
