<svg width="84" height="75" viewBox="0 0 84 75" fill="none" xmlns="http://www.w3.org/2000/svg">
<path d="M28.4298 -6.19304C28.2312 -9.42823 32.5931 -10.6358 34.0867 -7.75917L44.9764 13.215C45.7977 14.797 47.8091 15.3181 49.2952 14.334L68.9995 1.28614C71.702 -0.503391 74.9287 2.67032 73.1842 5.4021L60.4649 25.32C59.5056 26.8222 60.0599 28.8247 61.6553 29.6197L82.8071 40.1601C85.7082 41.6058 84.5731 45.9871 81.335 45.8422L57.726 44.7859C55.9453 44.7062 54.4883 46.1875 54.5975 47.9666L56.0452 71.5549C56.2437 74.7901 51.8818 75.9977 50.3883 73.1211L39.4985 52.1469C38.6772 50.5649 36.6659 50.0438 35.1797 51.0279L15.4754 64.0758C12.773 65.8653 9.5462 62.6916 11.2907 59.9598L24.01 40.0419C24.9694 38.5397 24.415 36.5372 22.8196 35.7422L1.66775 25.2018C-1.23327 23.7561 -0.0981345 19.3748 3.13989 19.5197L26.7489 20.576C28.5296 20.6557 29.9866 19.1744 29.8774 17.3953L28.4298 -6.19304Z" fill="#E0F2FE"/>
</svg>
