<svg width="61" height="61" viewBox="0 0 61 61" fill="none" xmlns="http://www.w3.org/2000/svg">
<path d="M28.9303 0.527476C29.6955 -0.175828 30.8719 -0.175829 31.6371 0.527475L34.6003 3.25098C35.151 3.75712 35.9381 3.91369 36.6406 3.65681L40.4205 2.2746C41.3966 1.91767 42.4834 2.36784 42.9212 3.31044L44.6167 6.96061C44.9317 7.63897 45.599 8.08482 46.3463 8.11633L50.3674 8.28584C51.4058 8.32961 52.2376 9.16143 52.2814 10.1998L52.4509 14.221C52.4824 14.9683 52.9283 15.6355 53.6066 15.9506L57.2568 17.646C58.1994 18.0838 58.6496 19.1707 58.2927 20.1468L56.9104 23.9267C56.6536 24.6292 56.8101 25.4163 57.3163 25.9669L60.0398 28.9302C60.7431 29.6954 60.7431 30.8718 60.0398 31.637L57.3163 34.6002C56.8101 35.1509 56.6536 35.938 56.9104 36.6405L58.2927 40.4204C58.6496 41.3965 58.1994 42.4833 57.2568 42.9211L53.6066 44.6165C52.9283 44.9316 52.4824 45.5989 52.4509 46.3462L52.2814 50.3673C52.2376 51.4057 51.4058 52.2375 50.3674 52.2813L46.3463 52.4508C45.599 52.4823 44.9317 52.9282 44.6167 53.6065L42.9212 57.2567C42.4834 58.1993 41.3966 58.6495 40.4205 58.2925L36.6406 56.9103C35.9381 56.6535 35.151 56.81 34.6003 57.3162L31.6371 60.0397C30.8719 60.743 29.6955 60.743 28.9303 60.0397L25.9671 57.3162C25.4164 56.81 24.6293 56.6535 23.9268 56.9103L20.1469 58.2925C19.1708 58.6495 18.084 58.1993 17.6462 57.2567L15.9507 53.6065C15.6356 52.9282 14.9684 52.4823 14.2211 52.4508L10.2 52.2813C9.16156 52.2375 8.32973 51.4057 8.28596 50.3673L8.11645 46.3462C8.08495 45.5989 7.63909 44.9316 6.96073 44.6165L3.31057 42.9211C2.36797 42.4833 1.91779 41.3965 2.27472 40.4204L3.65693 36.6405C3.91381 35.938 3.75725 35.1509 3.2511 34.6002L0.527598 31.637C-0.175706 30.8718 -0.175707 29.6954 0.527597 28.9302L3.2511 25.9669C3.75725 25.4163 3.91381 24.6292 3.65693 23.9267L2.27472 20.1468C1.91779 19.1707 2.36797 18.0838 3.31057 17.646L6.96073 15.9506C7.63909 15.6355 8.08495 14.9683 8.11645 14.221L8.28596 10.1998C8.32973 9.16143 9.16155 8.32961 10.2 8.28584L14.2211 8.11633C14.9684 8.08482 15.6356 7.63897 15.9507 6.96061L17.6462 3.31045C18.084 2.36784 19.1708 1.91767 20.1469 2.2746L23.9268 3.65681C24.6293 3.91369 25.4164 3.75712 25.9671 3.25098L28.9303 0.527476Z" fill="#FBF4FF"/>
</svg>
